<?xml version="1.0" encoding="UTF-8" standalone="no"?>
<!-- Creator: CorelDRAW -->

<svg
   xmlns:dc="http://purl.org/dc/elements/1.1/"
   xmlns:cc="http://creativecommons.org/ns#"
   xmlns:rdf="http://www.w3.org/1999/02/22-rdf-syntax-ns#"
   xmlns:svg="http://www.w3.org/2000/svg"
   xmlns="http://www.w3.org/2000/svg"
   xmlns:sodipodi="http://sodipodi.sourceforge.net/DTD/sodipodi-0.dtd"
   xmlns:inkscape="http://www.inkscape.org/namespaces/inkscape"
   xml:space="preserve"
   width="1cm"
   height="1cm"
   style="shape-rendering:geometricPrecision; text-rendering:geometricPrecision; image-rendering:optimizeQuality; fill-rule:evenodd"
   viewBox="0 0 1000 1000"
   version="1.1"
   id="svg3893"
   sodipodi:docname="4suits.svg"
   inkscape:version="0.92.4 (5da689c313, 2019-01-14)"><metadata
   id="metadata3897"><rdf:RDF><cc:Work
       rdf:about=""><dc:format>image/svg+xml</dc:format><dc:type
         rdf:resource="http://purl.org/dc/dcmitype/StillImage" /><dc:title></dc:title></cc:Work></rdf:RDF></metadata><sodipodi:namedview
   pagecolor="#ffffff"
   bordercolor="#666666"
   borderopacity="1"
   objecttolerance="10"
   gridtolerance="10"
   guidetolerance="10"
   inkscape:pageopacity="0"
   inkscape:pageshadow="2"
   inkscape:window-width="1366"
   inkscape:window-height="705"
   id="namedview3895"
   showgrid="false"
   inkscape:zoom="6.2441667"
   inkscape:cx="18.897638"
   inkscape:cy="18.897638"
   inkscape:window-x="-8"
   inkscape:window-y="-8"
   inkscape:window-maximized="1"
   inkscape:current-layer="svg3893" />
 <defs
   id="defs3880">
  <style
   type="text/css"
   id="style3878">
   <![CDATA[
    .fil0 {fill:#202326}
    .fil1 {fill:#D52C27}
   ]]>
  </style>
 </defs>
 <g
   id="Layer 1">
  <g
   id="g3890">
   <path
   class="fil0"
   d="M784 958l-99 0c13,-17 21,-31 25,-43 4,-10 5,-26 5,-43 0,-14 0,-24 -1,-29 -2,-4 -3,-7 -4,-8 -3,-3 -4,-3 -5,-3 -3,0 -7,1 -10,3 -4,2 -11,10 -24,23 -15,14 -25,22 -33,27 -14,7 -28,10 -43,10 -24,0 -43,-8 -57,-25 -16,-17 -22,-39 -22,-66 0,-20 4,-37 12,-54 6,-17 17,-28 28,-36 13,-8 28,-11 43,-11 9,0 18,2 26,4 8,3 20,8 37,17 17,9 28,13 35,13 2,0 5,0 8,-2 1,-2 2,-6 2,-8 0,-5 -1,-9 -2,-12 -4,-4 -11,-9 -21,-16 -15,-9 -26,-20 -34,-36 -9,-14 -13,-30 -13,-44 0,-24 9,-43 26,-59 18,-17 42,-24 73,-24 30,0 53,7 70,24 18,16 26,35 26,59 0,17 -4,31 -12,45 -9,15 -19,26 -32,34 -12,8 -20,13 -22,17 -3,3 -4,7 -4,11 0,3 1,6 4,9 2,2 5,2 7,2 7,0 17,-4 33,-13 26,-14 47,-22 65,-22 17,0 32,4 44,12 12,8 21,21 29,38 6,18 10,35 10,52 0,27 -8,49 -22,66 -14,17 -34,25 -57,25 -14,0 -27,-3 -39,-8 -12,-7 -27,-18 -46,-38 -7,-9 -13,-13 -15,-16 -4,-1 -7,-1 -9,-1 -3,0 -4,0 -6,1 -2,2 -3,4 -3,10 -3,6 -3,15 -3,28 0,20 1,34 5,46 4,11 12,24 25,41z"
   id="path3882" />
   <path
   class="fil1"
   d="M260 532l173 221 -173 221 -176 -221 176 -221z"
   id="path3884" />
   <path
   class="fil1"
   d="M721 471l-63 -90c-7,-10 -26,-35 -56,-74 -31,-39 -51,-69 -61,-92 -9,-23 -15,-45 -15,-68 0,-21 4,-39 12,-56 8,-16 18,-27 33,-35 14,-8 28,-12 42,-12 23,0 41,7 59,21 17,13 27,31 33,53 2,9 6,17 9,20 2,2 4,4 6,4 4,0 7,-2 9,-4 4,-4 7,-11 9,-20 7,-23 19,-41 34,-54 16,-13 35,-19 57,-19 26,0 47,10 64,28 17,17 25,43 25,75 0,22 -5,44 -16,68 -10,23 -30,54 -61,93 -30,38 -49,63 -56,72l-64 90z"
   id="path3886" />
   <path
   class="fil0"
   d="M305 464l-100 0c11,-13 17,-23 21,-34 5,-15 9,-32 9,-49 0,-17 -3,-29 -8,-36 -2,-6 -5,-7 -9,-7 -2,0 -6,1 -9,3 -4,4 -8,10 -12,19 -9,24 -19,39 -30,48 -11,9 -23,13 -37,13 -18,0 -35,-8 -50,-24 -14,-16 -20,-38 -20,-65 0,-15 2,-28 7,-41 8,-17 16,-30 24,-41l88 -116c18,-23 44,-61 76,-111 24,41 50,77 76,111l89 116c22,28 32,56 32,84 0,26 -8,47 -22,63 -13,16 -30,24 -49,24 -13,0 -25,-4 -35,-11 -11,-8 -21,-25 -33,-50 -4,-10 -8,-17 -12,-19 -1,-3 -3,-3 -6,-3 -4,0 -8,1 -12,7 -4,7 -6,19 -6,36 0,30 9,57 28,83z"
   id="path3888" />
  </g>
 </g>
</svg>