<?xml version="1.0" encoding="UTF-8" standalone="no"?>
<!-- Creator: CorelDRAW -->

<svg
   xmlns:dc="http://purl.org/dc/elements/1.1/"
   xmlns:cc="http://creativecommons.org/ns#"
   xmlns:rdf="http://www.w3.org/1999/02/22-rdf-syntax-ns#"
   xmlns:svg="http://www.w3.org/2000/svg"
   xmlns="http://www.w3.org/2000/svg"
   xmlns:sodipodi="http://sodipodi.sourceforge.net/DTD/sodipodi-0.dtd"
   xmlns:inkscape="http://www.inkscape.org/namespaces/inkscape"
   xml:space="preserve"
   width="1cm"
   height="1cm"
   style="shape-rendering:geometricPrecision; text-rendering:geometricPrecision; image-rendering:optimizeQuality; fill-rule:evenodd"
   viewBox="0 0 1000 1000"
   version="1.1"
   id="svg3893"
   sodipodi:docname="clubs.svg"
   inkscape:version="0.92.4 (5da689c313, 2019-01-14)"
   inkscape:export-filename="C:\Users\acesareh\Desktop\Enseignes\clubs.png"
   inkscape:export-xdpi="2798.1589"
   inkscape:export-ydpi="2798.1589"><metadata
   id="metadata3897"><rdf:RDF><cc:Work
       rdf:about=""><dc:format>image/svg+xml</dc:format><dc:type
         rdf:resource="http://purl.org/dc/dcmitype/StillImage" /><dc:title /></cc:Work></rdf:RDF></metadata><sodipodi:namedview
   pagecolor="#ffffff"
   bordercolor="#666666"
   borderopacity="1"
   objecttolerance="10"
   gridtolerance="10"
   guidetolerance="10"
   inkscape:pageopacity="0"
   inkscape:pageshadow="2"
   inkscape:window-width="1920"
   inkscape:window-height="1017"
   id="namedview3895"
   showgrid="false"
   inkscape:zoom="6.2441667"
   inkscape:cx="-10.329641"
   inkscape:cy="18.897638"
   inkscape:window-x="-8"
   inkscape:window-y="-8"
   inkscape:window-maximized="1"
   inkscape:current-layer="g3890" />
 <defs
   id="defs3880">
  <style
   type="text/css"
   id="style3878">
   <![CDATA[
    .fil0 {fill:#202326}
    .fil1 {fill:#D52C27}
   ]]>
  </style>
 
  
 </defs>
 <g
   id="g3890">
   <path
   style="fill:#202326;stroke-width:2.08286786"
   inkscape:connector-curvature="0"
   id="path3882"
   d="M 610.17445,936.81358 H 400.07624 c 27.58865,-34.75244 44.56629,-63.37212 53.0551,-87.90324 8.48882,-20.44255 10.61102,-53.1508 10.61102,-87.9032 0,-28.61959 0,-49.06225 -2.1222,-59.28354 -4.24441,-8.17705 -6.36661,-14.30983 -8.48882,-16.35409 -6.36661,-6.13278 -8.48881,-6.13278 -10.61102,-6.13278 -6.36661,0 -14.85543,2.04426 -21.22204,6.13278 -8.48882,4.08852 -23.34425,20.44261 -50.93291,47.01804 -31.83305,28.61959 -53.05509,44.97367 -70.03273,55.19495 -29.71086,14.30984 -59.42172,20.44264 -91.25478,20.44264 -50.93289,0 -91.25478,-16.35408 -120.96563,-51.10647 -33.955267,-34.75247 -46.688487,-79.7262 -46.688487,-134.92124 0,-40.88521 8.488819,-75.63764 25.466449,-110.39006 12.733228,-34.75244 36.077468,-57.2393 59.421708,-73.59339 27.58866,-16.35408 59.42172,-22.48686 91.25478,-22.48686 19.09983,0 38.19967,4.08852 55.17731,8.17704 16.97763,6.13278 42.44408,16.35409 78.52155,34.75243 36.07747,18.39834 59.42172,26.57538 74.27715,26.57538 4.24441,0 10.61102,0 16.97763,-4.08852 2.12221,-4.08852 4.24441,-12.26556 4.24441,-16.35408 0,-10.2213 -2.1222,-18.39835 -4.24441,-24.53112 -8.48882,-8.17704 -23.34425,-18.39835 -44.56629,-32.70817 -31.83306,-18.39835 -55.17731,-40.88522 -72.15494,-73.59339 -19.09983,-28.61965 -27.58865,-61.32781 -27.58865,-89.94746 0,-49.06226 19.09984,-87.9032 55.1773,-120.61137 38.19968,-34.752429 89.13258,-49.062253 154.9209,-49.062253 63.66613,0 112.47683,14.309824 148.5543,49.062253 38.19967,32.70817 55.17731,71.54911 55.17731,120.61137 0,34.75243 -8.48882,63.37208 -25.46645,91.99173 -19.09984,30.6639 -40.32189,53.15077 -67.91053,69.50485 -25.46645,16.35409 -42.44409,26.5754 -46.6885,34.75244 -6.36661,6.13277 -8.48881,14.30982 -8.48881,22.48686 0,6.13278 2.1222,12.26556 8.48881,18.39834 4.24441,4.08852 10.61102,4.08852 14.85543,4.08852 14.85543,0 36.07747,-8.17704 70.03274,-26.57538 55.17731,-28.61965 99.74355,-44.97374 137.9433,-44.97374 36.07744,0 67.91053,8.17705 93.37697,24.53113 25.46644,16.35409 44.56623,42.92947 61.54388,77.68191 12.73325,36.79668 21.22212,71.54912 21.22212,106.30154 0,55.19504 -16.97768,100.16877 -46.68856,134.92124 -29.71087,34.75239 -72.15497,51.10647 -120.96563,51.10647 -29.71087,0 -57.29953,-6.1328 -82.76596,-16.35408 -25.46645,-14.30984 -57.29951,-36.79672 -97.62139,-77.6819 -14.85542,-18.39835 -27.58865,-26.57539 -31.83306,-32.70817 -8.48882,-2.04426 -14.85543,-2.04426 -19.09984,-2.04426 -6.36661,0 -8.48881,0 -12.73322,2.04426 -4.24441,4.08852 -6.36662,8.17704 -6.36662,20.44261 -6.36661,12.26556 -6.36661,30.66395 -6.36661,57.2393 0,40.8852 2.12221,69.50489 10.61102,94.036 8.48882,22.48689 25.46645,49.06224 53.05511,83.81468 z"
   class="fil0" />
   
   
   
  </g>
</svg>