<?xml version="1.0" encoding="UTF-8" standalone="no"?>
<!-- Creator: CorelDRAW -->

<svg
   xmlns:dc="http://purl.org/dc/elements/1.1/"
   xmlns:cc="http://creativecommons.org/ns#"
   xmlns:rdf="http://www.w3.org/1999/02/22-rdf-syntax-ns#"
   xmlns:svg="http://www.w3.org/2000/svg"
   xmlns="http://www.w3.org/2000/svg"
   xmlns:sodipodi="http://sodipodi.sourceforge.net/DTD/sodipodi-0.dtd"
   xmlns:inkscape="http://www.inkscape.org/namespaces/inkscape"
   xml:space="preserve"
   width="1cm"
   height="1cm"
   style="shape-rendering:geometricPrecision; text-rendering:geometricPrecision; image-rendering:optimizeQuality; fill-rule:evenodd"
   viewBox="0 0 1000 1000"
   version="1.1"
   id="svg3796"
   sodipodi:docname="heart.svg"
   inkscape:version="0.92.4 (5da689c313, 2019-01-14)"
   inkscape:export-filename="C:\Users\acesareh\Desktop\Enseignes\heart.png"
   inkscape:export-xdpi="2861.5022"
   inkscape:export-ydpi="2861.5022"><metadata
   id="metadata3800"><rdf:RDF><cc:Work
       rdf:about=""><dc:format>image/svg+xml</dc:format><dc:type
         rdf:resource="http://purl.org/dc/dcmitype/StillImage" /><dc:title /></cc:Work></rdf:RDF></metadata><sodipodi:namedview
   pagecolor="#ffffff"
   bordercolor="#666666"
   borderopacity="1"
   objecttolerance="10"
   gridtolerance="10"
   guidetolerance="10"
   inkscape:pageopacity="0"
   inkscape:pageshadow="2"
   inkscape:window-width="1920"
   inkscape:window-height="1017"
   id="namedview3798"
   showgrid="false"
   inkscape:zoom="6.2441667"
   inkscape:cx="-10.329641"
   inkscape:cy="18.897638"
   inkscape:window-x="-32000"
   inkscape:window-y="-32000"
   inkscape:window-maximized="0"
   inkscape:current-layer="Layer 1" />
 <defs
   id="defs3783">
  <style
   type="text/css"
   id="style3781">
   <![CDATA[
    .fil0 {fill:#202326}
    .fil1 {fill:#D52C27}
   ]]>
  </style>
 
   
   
   
   
  </defs>
 <g
   id="Layer 1">
  <path
   style="fill:#d52c27;stroke-width:2.09514523"
   inkscape:connector-curvature="0"
   id="path3789"
   d="M 495.10498,894.7288 349.02387,724.34933 C 332.79264,705.41828 288.73643,658.09065 219.174,584.25954 147.29281,510.42845 100.91785,453.63529 77.730386,410.09387 56.861657,366.55245 42.949163,324.90414 42.949163,281.36271 c 0,-39.7552 9.274995,-73.8311 27.824977,-106.01388 18.549983,-30.2897 41.73745,-51.11385 76.51867,-66.25869 32.46248,-15.144836 64.92494,-22.717256 97.3874,-22.717256 53.33121,0 95.06867,13.251732 136.80614,39.755206 39.4187,24.61037 62.60619,58.68626 76.51867,100.33457 4.6375,17.03795 13.91248,32.18279 20.86874,37.86211 4.63749,3.78621 9.27498,7.57243 13.91248,7.57243 9.27499,0 16.23123,-3.78622 20.86873,-7.57243 9.27499,-7.57242 16.23123,-20.82416 20.86872,-37.86211 16.23124,-43.54142 44.05622,-77.61731 78.83743,-102.22768 37.09998,-24.610364 81.15618,-35.968999 132.1686,-35.968999 60.28747,0 108.98116,18.931059 148.39993,53.006949 39.41869,32.18279 57.96871,81.40352 57.96871,141.98289 0,41.64832 -11.59382,83.29663 -37.10002,128.73115 -23.18748,43.54142 -69.56246,102.22768 -141.44363,176.05878 -69.56242,71.93801 -113.61863,119.26564 -129.84986,136.30358 z"
   class="fil1" />
 </g>
</svg>