<?xml version="1.0" encoding="UTF-8" standalone="no"?>
<!-- Creator: CorelDRAW -->

<svg
   xmlns:dc="http://purl.org/dc/elements/1.1/"
   xmlns:cc="http://creativecommons.org/ns#"
   xmlns:rdf="http://www.w3.org/1999/02/22-rdf-syntax-ns#"
   xmlns:svg="http://www.w3.org/2000/svg"
   xmlns="http://www.w3.org/2000/svg"
   xmlns:sodipodi="http://sodipodi.sourceforge.net/DTD/sodipodi-0.dtd"
   xmlns:inkscape="http://www.inkscape.org/namespaces/inkscape"
   xml:space="preserve"
   width="1cm"
   height="1cm"
   style="shape-rendering:geometricPrecision; text-rendering:geometricPrecision; image-rendering:optimizeQuality; fill-rule:evenodd"
   viewBox="0 0 1000 1000"
   version="1.1"
   id="svg46"
   sodipodi:docname="spade.svg"
   inkscape:version="0.92.4 (5da689c313, 2019-01-14)"
   inkscape:export-filename="C:\Users\acesareh\Desktop\Enseignes\spade.png"
   inkscape:export-xdpi="3167.6355"
   inkscape:export-ydpi="3167.6355"><metadata
   id="metadata50"><rdf:RDF><cc:Work
       rdf:about=""><dc:format>image/svg+xml</dc:format><dc:type
         rdf:resource="http://purl.org/dc/dcmitype/StillImage" /><dc:title /></cc:Work></rdf:RDF></metadata><sodipodi:namedview
   pagecolor="#ffffff"
   bordercolor="#666666"
   borderopacity="1"
   objecttolerance="10"
   gridtolerance="10"
   guidetolerance="10"
   inkscape:pageopacity="0"
   inkscape:pageshadow="2"
   inkscape:window-width="1920"
   inkscape:window-height="1017"
   id="namedview48"
   showgrid="false"
   inkscape:zoom="14.181667"
   inkscape:cx="6.0289111"
   inkscape:cy="18.932895"
   inkscape:window-x="-8"
   inkscape:window-y="-8"
   inkscape:window-maximized="1"
   inkscape:current-layer="g43" />
 <defs
   id="defs33">
  <style
   type="text/css"
   id="style31">
   <![CDATA[
    .fil0 {fill:#202326}
    .fil1 {fill:#D52C27}
   ]]>
  </style>
 
  
 </defs>
 <g
   id="g43">
   
   
   
   <path
   style="fill:#202326;stroke-width:2.08032703"
   inkscape:connector-curvature="0"
   id="path41"
   d="M 603.04104,936.01491 H 393.57561 c 23.0412,-26.85927 35.60913,-47.52025 43.98774,-70.24733 10.47327,-30.99147 18.85189,-66.11514 18.85189,-101.23881 0,-35.12366 -6.28396,-59.91684 -16.75723,-74.37953 -4.18931,-12.39659 -10.47327,-14.46268 -18.85189,-14.46268 -4.18931,0 -12.56793,2.06609 -18.85189,6.19829 -8.37862,8.26439 -16.75723,20.66098 -25.13585,39.25586 -18.85189,49.58636 -39.79843,80.57783 -62.83963,99.17271 -23.0412,18.59488 -48.17705,26.85927 -77.50221,26.85927 -37.70377,0 -73.3129,-16.52878 -104.73271,-49.58635 -29.32516,-33.05757 -41.893082,-78.51173 -41.893082,-134.29637 0,-30.99147 4.18931,-57.85075 14.662582,-84.71002 16.75723,-35.12367 33.51446,-61.98294 50.2717,-84.71002 L 339.1146,254.20255 C 376.81838,206.6823 431.27939,128.17057 498.30833,24.865672 548.58003,109.57569 603.04104,183.95522 657.50205,254.20255 l 186.42423,239.66738 c 46.08239,57.85074 67.02893,115.70149 67.02893,173.55223 0,53.71855 -16.75723,97.10661 -46.08239,130.16418 -27.23051,33.05757 -62.83963,49.58635 -102.63806,49.58635 -27.2305,0 -52.36636,-8.26439 -73.3129,-22.72707 -23.04119,-16.52879 -43.98774,-51.65246 -69.12359,-103.30491 -8.37861,-20.66098 -16.75723,-35.12366 -25.13585,-39.25586 -2.09465,-6.19829 -6.28396,-6.19829 -12.56792,-6.19829 -8.37862,0 -16.75724,2.06609 -25.13586,14.46268 -8.37861,14.46269 -12.56792,39.25587 -12.56792,74.37953 0,61.98294 18.85189,117.76759 58.65032,171.48614 z"
   class="fil0" />
  </g>
</svg>